<svg width="471" height="471" viewBox="0 0 471 471" fill="none" xmlns="http://www.w3.org/2000/svg">
<path fill-rule="evenodd" clip-rule="evenodd" d="M251.451 116C197.47 116 151.742 151.666 136.692 200.788C131.839 216.63 115.062 225.537 99.2201 220.684C83.3783 215.831 74.4705 199.054 79.3239 183.212C101.88 109.59 170.368 56 251.451 56C302.701 56 348.99 77.4578 381.734 111.797C393.168 123.788 392.717 142.777 380.726 154.211C368.735 165.645 349.746 165.194 338.312 153.203C316.419 130.245 285.624 116 251.451 116ZM304.451 234C304.451 264.928 279.379 290 248.451 290C217.523 290 192.451 264.928 192.451 234C192.451 203.072 217.523 178 248.451 178C279.379 178 304.451 203.072 304.451 234ZM137.323 273.208C132.191 257.454 115.26 248.843 99.5062 253.975C83.7524 259.107 75.1416 276.038 80.2733 291.792C103.749 363.857 171.471 416 251.451 416C301.723 416 347.226 395.352 379.85 362.15C391.462 350.332 391.295 331.337 379.477 319.725C367.659 308.113 348.665 308.28 337.052 320.098C315.245 342.291 284.976 356 251.451 356C198.208 356 152.99 321.304 137.323 273.208Z" fill="url(#paint0_linear_46_17)"/>
<defs>
<linearGradient id="paint0_linear_46_17" x1="381.147" y1="208.25" x2="90.9645" y2="207.473" gradientUnits="userSpaceOnUse">
<stop stop-color="#8338EC"/>
<stop offset="1" stop-color="#0F31A0"/>
</linearGradient>
</defs>
</svg>
